<?xml version="1.0" encoding="UTF-8" standalone="no"?>
<!DOCTYPE svg PUBLIC "-//W3C//DTD SVG 1.1//EN"
 "http://www.w3.org/Graphics/SVG/1.1/DTD/svg11.dtd">
<!-- Generated by graphviz version 9.0.0 (20230911.1827)
 -->
<!-- Pages: 1 -->
<svg width="450pt" height="616pt"
 viewBox="0.00 0.00 450.00 616.00" xmlns="http://www.w3.org/2000/svg" xmlns:xlink="http://www.w3.org/1999/xlink">
<g id="graph0" class="graph" transform="scale(1 1) rotate(0) translate(4 612)">
<polygon fill="white" stroke="none" points="-4,4 -4,-612 446,-612 446,4 -4,4"/>
<!-- 1855335238288 -->
<g id="node1" class="node">
<title>1855335238288</title>
<polygon fill="#caff70" stroke="black" points="236,-32 178,-32 178,0 236,0 236,-32"/>
<text text-anchor="middle" x="207" y="-6.5" font-family="monospace" font-size="10.00"> (1, 2)</text>
</g>
<!-- 1855336021680 -->
<g id="node2" class="node">
<title>1855336021680</title>
<polygon fill="lightgrey" stroke="black" points="263,-88 151,-88 151,-68 263,-68 263,-88"/>
<text text-anchor="middle" x="207" y="-74.5" font-family="monospace" font-size="10.00">SoftmaxBackward0</text>
</g>
<!-- 1855336021680&#45;&gt;1855335238288 -->
<g id="edge21" class="edge">
<title>1855336021680&#45;&gt;1855335238288</title>
<path fill="none" stroke="black" d="M207,-67.63C207,-61.1 207,-52.05 207,-43.4"/>
<polygon fill="black" stroke="black" points="210.5,-43.65 207,-33.65 203.5,-43.65 210.5,-43.65"/>
</g>
<!-- 1855336021296 -->
<g id="node3" class="node">
<title>1855336021296</title>
<polygon fill="lightgrey" stroke="black" points="257,-144 157,-144 157,-124 257,-124 257,-144"/>
<text text-anchor="middle" x="207" y="-130.5" font-family="monospace" font-size="10.00">AddmmBackward0</text>
</g>
<!-- 1855336021296&#45;&gt;1855336021680 -->
<g id="edge1" class="edge">
<title>1855336021296&#45;&gt;1855336021680</title>
<path fill="none" stroke="black" d="M207,-123.59C207,-117.01 207,-107.96 207,-99.73"/>
<polygon fill="black" stroke="black" points="210.5,-99.81 207,-89.81 203.5,-99.81 210.5,-99.81"/>
</g>
<!-- 1855336021536 -->
<g id="node4" class="node">
<title>1855336021536</title>
<polygon fill="lightgrey" stroke="black" points="133,-200 33,-200 33,-180 133,-180 133,-200"/>
<text text-anchor="middle" x="83" y="-186.5" font-family="monospace" font-size="10.00">AccumulateGrad</text>
</g>
<!-- 1855336021536&#45;&gt;1855336021296 -->
<g id="edge2" class="edge">
<title>1855336021536&#45;&gt;1855336021296</title>
<path fill="none" stroke="black" d="M104.6,-179.59C123.95,-171.17 152.6,-158.69 174.68,-149.07"/>
<polygon fill="black" stroke="black" points="176.07,-152.29 183.84,-145.08 173.28,-145.87 176.07,-152.29"/>
</g>
<!-- 1855336106720 -->
<g id="node5" class="node">
<title>1855336106720</title>
<polygon fill="lightblue" stroke="black" points="127,-268 39,-268 39,-236 127,-236 127,-268"/>
<text text-anchor="middle" x="83" y="-254.5" font-family="monospace" font-size="10.00">linear3.bias</text>
<text text-anchor="middle" x="83" y="-242.5" font-family="monospace" font-size="10.00"> (2)</text>
</g>
<!-- 1855336106720&#45;&gt;1855336021536 -->
<g id="edge3" class="edge">
<title>1855336106720&#45;&gt;1855336021536</title>
<path fill="none" stroke="black" d="M83,-235.55C83,-228.34 83,-219.66 83,-211.88"/>
<polygon fill="black" stroke="black" points="86.5,-211.92 83,-201.92 79.5,-211.92 86.5,-211.92"/>
</g>
<!-- 1855336021248 -->
<g id="node6" class="node">
<title>1855336021248</title>
<polygon fill="lightgrey" stroke="black" points="263,-200 151,-200 151,-180 263,-180 263,-200"/>
<text text-anchor="middle" x="207" y="-186.5" font-family="monospace" font-size="10.00">SigmoidBackward0</text>
</g>
<!-- 1855336021248&#45;&gt;1855336021296 -->
<g id="edge4" class="edge">
<title>1855336021248&#45;&gt;1855336021296</title>
<path fill="none" stroke="black" d="M207,-179.59C207,-173.01 207,-163.96 207,-155.73"/>
<polygon fill="black" stroke="black" points="210.5,-155.81 207,-145.81 203.5,-155.81 210.5,-155.81"/>
</g>
<!-- 1855336021584 -->
<g id="node7" class="node">
<title>1855336021584</title>
<polygon fill="lightgrey" stroke="black" points="248,-262 148,-262 148,-242 248,-242 248,-262"/>
<text text-anchor="middle" x="198" y="-248.5" font-family="monospace" font-size="10.00">AddmmBackward0</text>
</g>
<!-- 1855336021584&#45;&gt;1855336021248 -->
<g id="edge5" class="edge">
<title>1855336021584&#45;&gt;1855336021248</title>
<path fill="none" stroke="black" d="M199.41,-241.63C200.62,-233.56 202.4,-221.65 203.94,-211.41"/>
<polygon fill="black" stroke="black" points="207.39,-212.02 205.41,-201.61 200.46,-210.98 207.39,-212.02"/>
</g>
<!-- 1855336020960 -->
<g id="node8" class="node">
<title>1855336020960</title>
<polygon fill="lightgrey" stroke="black" points="100,-330 0,-330 0,-310 100,-310 100,-330"/>
<text text-anchor="middle" x="50" y="-316.5" font-family="monospace" font-size="10.00">AccumulateGrad</text>
</g>
<!-- 1855336020960&#45;&gt;1855336021584 -->
<g id="edge6" class="edge">
<title>1855336020960&#45;&gt;1855336021584</title>
<path fill="none" stroke="black" d="M71.2,-309.54C96.15,-298.42 137.8,-279.84 166.52,-267.04"/>
<polygon fill="black" stroke="black" points="167.74,-270.32 175.45,-263.06 164.89,-263.93 167.74,-270.32"/>
</g>
<!-- 1855335235968 -->
<g id="node9" class="node">
<title>1855335235968</title>
<polygon fill="lightblue" stroke="black" points="94,-404 6,-404 6,-372 94,-372 94,-404"/>
<text text-anchor="middle" x="50" y="-390.5" font-family="monospace" font-size="10.00">linear2.bias</text>
<text text-anchor="middle" x="50" y="-378.5" font-family="monospace" font-size="10.00"> (8)</text>
</g>
<!-- 1855335235968&#45;&gt;1855336020960 -->
<g id="edge7" class="edge">
<title>1855335235968&#45;&gt;1855336020960</title>
<path fill="none" stroke="black" d="M50,-371.69C50,-362.8 50,-351.46 50,-341.77"/>
<polygon fill="black" stroke="black" points="53.5,-341.83 50,-331.83 46.5,-341.83 53.5,-341.83"/>
</g>
<!-- 1855336021008 -->
<g id="node10" class="node">
<title>1855336021008</title>
<polygon fill="lightgrey" stroke="black" points="230,-330 118,-330 118,-310 230,-310 230,-330"/>
<text text-anchor="middle" x="174" y="-316.5" font-family="monospace" font-size="10.00">SigmoidBackward0</text>
</g>
<!-- 1855336021008&#45;&gt;1855336021584 -->
<g id="edge8" class="edge">
<title>1855336021008&#45;&gt;1855336021584</title>
<path fill="none" stroke="black" d="M177.44,-309.54C180.9,-300.04 186.33,-285.09 190.75,-272.95"/>
<polygon fill="black" stroke="black" points="193.92,-274.46 194.05,-263.86 187.34,-272.06 193.92,-274.46"/>
</g>
<!-- 1855336169584 -->
<g id="node11" class="node">
<title>1855336169584</title>
<polygon fill="lightgrey" stroke="black" points="221,-398 121,-398 121,-378 221,-378 221,-398"/>
<text text-anchor="middle" x="171" y="-384.5" font-family="monospace" font-size="10.00">AddmmBackward0</text>
</g>
<!-- 1855336169584&#45;&gt;1855336021008 -->
<g id="edge9" class="edge">
<title>1855336169584&#45;&gt;1855336021008</title>
<path fill="none" stroke="black" d="M171.43,-377.54C171.85,-368.23 172.51,-353.7 173.06,-341.7"/>
<polygon fill="black" stroke="black" points="176.54,-342.1 173.5,-331.95 169.55,-341.78 176.54,-342.1"/>
</g>
<!-- 1855336169776 -->
<g id="node12" class="node">
<title>1855336169776</title>
<polygon fill="lightgrey" stroke="black" points="118,-466 18,-466 18,-446 118,-446 118,-466"/>
<text text-anchor="middle" x="68" y="-452.5" font-family="monospace" font-size="10.00">AccumulateGrad</text>
</g>
<!-- 1855336169776&#45;&gt;1855336169584 -->
<g id="edge10" class="edge">
<title>1855336169776&#45;&gt;1855336169584</title>
<path fill="none" stroke="black" d="M82.76,-445.54C99.43,-434.86 126.83,-417.31 146.68,-404.59"/>
<polygon fill="black" stroke="black" points="148.46,-407.6 155,-399.26 144.69,-401.7 148.46,-407.6"/>
</g>
<!-- 1855335237488 -->
<g id="node13" class="node">
<title>1855335237488</title>
<polygon fill="lightblue" stroke="black" points="111,-540 23,-540 23,-508 111,-508 111,-540"/>
<text text-anchor="middle" x="67" y="-526.5" font-family="monospace" font-size="10.00">linear1.bias</text>
<text text-anchor="middle" x="67" y="-514.5" font-family="monospace" font-size="10.00"> (12)</text>
</g>
<!-- 1855335237488&#45;&gt;1855336169776 -->
<g id="edge11" class="edge">
<title>1855335237488&#45;&gt;1855336169776</title>
<path fill="none" stroke="black" d="M67.23,-507.69C67.37,-498.8 67.54,-487.46 67.69,-477.77"/>
<polygon fill="black" stroke="black" points="71.18,-477.88 67.84,-467.83 64.18,-477.78 71.18,-477.88"/>
</g>
<!-- 1855336169728 -->
<g id="node14" class="node">
<title>1855336169728</title>
<polygon fill="lightgrey" stroke="black" points="215,-466 139,-466 139,-446 215,-446 215,-466"/>
<text text-anchor="middle" x="177" y="-452.5" font-family="monospace" font-size="10.00">TBackward0</text>
</g>
<!-- 1855336169728&#45;&gt;1855336169584 -->
<g id="edge12" class="edge">
<title>1855336169728&#45;&gt;1855336169584</title>
<path fill="none" stroke="black" d="M176.14,-445.54C175.29,-436.23 173.97,-421.7 172.88,-409.7"/>
<polygon fill="black" stroke="black" points="176.39,-409.59 172,-399.95 169.41,-410.22 176.39,-409.59"/>
</g>
<!-- 1855336169824 -->
<g id="node15" class="node">
<title>1855336169824</title>
<polygon fill="lightgrey" stroke="black" points="229,-534 129,-534 129,-514 229,-514 229,-534"/>
<text text-anchor="middle" x="179" y="-520.5" font-family="monospace" font-size="10.00">AccumulateGrad</text>
</g>
<!-- 1855336169824&#45;&gt;1855336169728 -->
<g id="edge13" class="edge">
<title>1855336169824&#45;&gt;1855336169728</title>
<path fill="none" stroke="black" d="M178.71,-513.54C178.43,-504.23 177.99,-489.7 177.63,-477.7"/>
<polygon fill="black" stroke="black" points="181.13,-477.84 177.33,-467.95 174.14,-478.05 181.13,-477.84"/>
</g>
<!-- 1855335239168 -->
<g id="node16" class="node">
<title>1855335239168</title>
<polygon fill="lightblue" stroke="black" points="229,-608 129,-608 129,-576 229,-576 229,-608"/>
<text text-anchor="middle" x="179" y="-594.5" font-family="monospace" font-size="10.00">linear1.weight</text>
<text text-anchor="middle" x="179" y="-582.5" font-family="monospace" font-size="10.00"> (12, 12)</text>
</g>
<!-- 1855335239168&#45;&gt;1855336169824 -->
<g id="edge14" class="edge">
<title>1855335239168&#45;&gt;1855336169824</title>
<path fill="none" stroke="black" d="M179,-575.69C179,-566.8 179,-555.46 179,-545.77"/>
<polygon fill="black" stroke="black" points="182.5,-545.83 179,-535.83 175.5,-545.83 182.5,-545.83"/>
</g>
<!-- 1855336021104 -->
<g id="node17" class="node">
<title>1855336021104</title>
<polygon fill="lightgrey" stroke="black" points="324,-330 248,-330 248,-310 324,-310 324,-330"/>
<text text-anchor="middle" x="286" y="-316.5" font-family="monospace" font-size="10.00">TBackward0</text>
</g>
<!-- 1855336021104&#45;&gt;1855336021584 -->
<g id="edge15" class="edge">
<title>1855336021104&#45;&gt;1855336021584</title>
<path fill="none" stroke="black" d="M273.39,-309.54C259.41,-299.06 236.6,-281.95 219.72,-269.29"/>
<polygon fill="black" stroke="black" points="221.9,-266.55 211.8,-263.35 217.7,-272.15 221.9,-266.55"/>
</g>
<!-- 1855336169872 -->
<g id="node18" class="node">
<title>1855336169872</title>
<polygon fill="lightgrey" stroke="black" points="339,-398 239,-398 239,-378 339,-378 339,-398"/>
<text text-anchor="middle" x="289" y="-384.5" font-family="monospace" font-size="10.00">AccumulateGrad</text>
</g>
<!-- 1855336169872&#45;&gt;1855336021104 -->
<g id="edge16" class="edge">
<title>1855336169872&#45;&gt;1855336021104</title>
<path fill="none" stroke="black" d="M288.57,-377.54C288.15,-368.23 287.49,-353.7 286.94,-341.7"/>
<polygon fill="black" stroke="black" points="290.45,-341.78 286.5,-331.95 283.46,-342.1 290.45,-341.78"/>
</g>
<!-- 1855335239248 -->
<g id="node19" class="node">
<title>1855335239248</title>
<polygon fill="lightblue" stroke="black" points="339,-472 239,-472 239,-440 339,-440 339,-472"/>
<text text-anchor="middle" x="289" y="-458.5" font-family="monospace" font-size="10.00">linear2.weight</text>
<text text-anchor="middle" x="289" y="-446.5" font-family="monospace" font-size="10.00"> (8, 12)</text>
</g>
<!-- 1855335239248&#45;&gt;1855336169872 -->
<g id="edge17" class="edge">
<title>1855335239248&#45;&gt;1855336169872</title>
<path fill="none" stroke="black" d="M289,-439.69C289,-430.8 289,-419.46 289,-409.77"/>
<polygon fill="black" stroke="black" points="292.5,-409.83 289,-399.83 285.5,-409.83 292.5,-409.83"/>
</g>
<!-- 1855336021344 -->
<g id="node20" class="node">
<title>1855336021344</title>
<polygon fill="lightgrey" stroke="black" points="405,-200 329,-200 329,-180 405,-180 405,-200"/>
<text text-anchor="middle" x="367" y="-186.5" font-family="monospace" font-size="10.00">TBackward0</text>
</g>
<!-- 1855336021344&#45;&gt;1855336021296 -->
<g id="edge18" class="edge">
<title>1855336021344&#45;&gt;1855336021296</title>
<path fill="none" stroke="black" d="M339.13,-179.59C313.25,-170.86 274.47,-157.77 245.61,-148.03"/>
<polygon fill="black" stroke="black" points="247.12,-144.85 236.52,-144.96 244.88,-151.48 247.12,-144.85"/>
</g>
<!-- 1855336021152 -->
<g id="node21" class="node">
<title>1855336021152</title>
<polygon fill="lightgrey" stroke="black" points="429,-262 329,-262 329,-242 429,-242 429,-262"/>
<text text-anchor="middle" x="379" y="-248.5" font-family="monospace" font-size="10.00">AccumulateGrad</text>
</g>
<!-- 1855336021152&#45;&gt;1855336021344 -->
<g id="edge19" class="edge">
<title>1855336021152&#45;&gt;1855336021344</title>
<path fill="none" stroke="black" d="M377.13,-241.63C375.5,-233.48 373.08,-221.39 371.01,-211.07"/>
<polygon fill="black" stroke="black" points="374.51,-210.72 369.12,-201.6 367.65,-212.09 374.51,-210.72"/>
</g>
<!-- 1855335243568 -->
<g id="node22" class="node">
<title>1855335243568</title>
<polygon fill="lightblue" stroke="black" points="442,-336 342,-336 342,-304 442,-304 442,-336"/>
<text text-anchor="middle" x="392" y="-322.5" font-family="monospace" font-size="10.00">linear3.weight</text>
<text text-anchor="middle" x="392" y="-310.5" font-family="monospace" font-size="10.00"> (2, 8)</text>
</g>
<!-- 1855335243568&#45;&gt;1855336021152 -->
<g id="edge20" class="edge">
<title>1855335243568&#45;&gt;1855336021152</title>
<path fill="none" stroke="black" d="M388.98,-303.69C387.21,-294.7 384.95,-283.21 383.03,-273.44"/>
<polygon fill="black" stroke="black" points="386.49,-272.94 381.13,-263.8 379.63,-274.29 386.49,-272.94"/>
</g>
</g>
</svg>
